<svg width="1318" height="1318" viewBox="0 0 1318 1318" fill="none" xmlns="http://www.w3.org/2000/svg">
<circle cx="659" cy="659" r="655" fill="white" stroke="black" stroke-width="8"/>
<g filter="url(#filter0_d_1639_391)">
<path d="M249.984 684.422L217.172 807.469H107.797L213.07 413.719H564.984L597.797 458.289L549.125 639.852L492.523 684.422H249.984ZM471.742 520.359H294.281L278.969 577.781H456.43L471.742 520.359ZM371.117 807.469L326.273 746.492L435.648 684.969L525.336 807.469H371.117ZM1148.5 547.703H1039.12L1046.51 520.086L869.047 520.359L820.375 700.555L922.914 700.828H998.109L1005.49 673.484H1114.87L1090.8 762.898L1034.48 807.469H727.406L694.32 762.898L776.078 458.562L832.406 413.719H1139.75L1172.56 458.289L1148.5 547.703Z" fill="#2C52B3"/>
<path d="M654.945 807.469H545.297L574.008 700.828H683.383L654.945 807.469ZM1216.04 807.469H1106.39L1135.1 700.828H1244.48L1216.04 807.469Z" fill="#FB2F38"/>
<path d="M249.984 684.422V681.422H247.68L247.086 683.649L249.984 684.422ZM217.172 807.469V810.469H219.477L220.071 808.242L217.172 807.469ZM107.797 807.469L104.899 806.694L103.889 810.469H107.797V807.469ZM213.07 413.719V410.719H210.767L210.172 412.944L213.07 413.719ZM564.984 413.719L567.4 411.94L566.501 410.719H564.984V413.719ZM597.797 458.289L600.695 459.066L601.068 457.672L600.213 456.51L597.797 458.289ZM549.125 639.852L550.981 642.209L551.764 641.592L552.023 640.628L549.125 639.852ZM492.523 684.422V687.422H493.563L494.379 686.779L492.523 684.422ZM471.742 520.359L474.641 521.132L475.647 517.359H471.742V520.359ZM294.281 520.359V517.359H291.976L291.383 519.586L294.281 520.359ZM278.969 577.781L276.07 577.008L275.064 580.781H278.969V577.781ZM456.43 577.781V580.781H458.735L459.328 578.554L456.43 577.781ZM371.117 807.469L368.7 809.246L369.6 810.469H371.117V807.469ZM326.273 746.492L324.803 743.877L321.849 745.539L323.857 748.27L326.273 746.492ZM435.648 684.969L438.069 683.197L436.497 681.049L434.178 682.354L435.648 684.969ZM525.336 807.469V810.469H531.25L527.757 805.697L525.336 807.469ZM247.086 683.649L214.273 806.696L220.071 808.242L252.883 685.195L247.086 683.649ZM217.172 804.469H107.797V810.469H217.172V804.469ZM110.695 808.244L215.969 414.494L210.172 412.944L104.899 806.694L110.695 808.244ZM213.07 416.719H564.984V410.719H213.07V416.719ZM562.568 415.497L595.381 460.068L600.213 456.51L567.4 411.94L562.568 415.497ZM594.899 457.512L546.227 639.075L552.023 640.628L600.695 459.066L594.899 457.512ZM547.269 637.495L490.667 682.065L494.379 686.779L550.981 642.209L547.269 637.495ZM492.523 681.422H249.984V687.422H492.523V681.422ZM471.742 517.359H294.281V523.359H471.742V517.359ZM291.383 519.586L276.07 577.008L281.867 578.554L297.18 521.132L291.383 519.586ZM278.969 580.781H456.43V574.781H278.969V580.781ZM459.328 578.554L474.641 521.132L468.843 519.586L453.531 577.008L459.328 578.554ZM373.534 805.691L328.69 744.715L323.857 748.27L368.7 809.246L373.534 805.691ZM327.744 749.107L437.119 687.583L434.178 682.354L324.803 743.877L327.744 749.107ZM433.228 686.741L522.915 809.241L527.757 805.697L438.069 683.197L433.228 686.741ZM525.336 804.469H371.117V810.469H525.336V804.469ZM654.945 807.469V810.469H657.25L657.844 808.242L654.945 807.469ZM545.297 807.469L542.4 806.689L541.382 810.469H545.297V807.469ZM574.008 700.828V697.828H571.709L571.111 700.048L574.008 700.828ZM683.383 700.828L686.281 701.601L687.288 697.828H683.383V700.828ZM654.945 804.469H545.297V810.469H654.945V804.469ZM548.194 808.249L576.905 701.608L571.111 700.048L542.4 806.689L548.194 808.249ZM574.008 703.828H683.383V697.828H574.008V703.828ZM680.484 700.055L652.047 806.696L657.844 808.242L686.281 701.601L680.484 700.055ZM1148.5 547.703V550.703H1150.8L1151.4 548.483L1148.5 547.703ZM1039.12 547.703L1036.23 546.928L1035.22 550.703H1039.12V547.703ZM1046.51 520.086L1049.41 520.861L1050.42 517.08L1046.5 517.086L1046.51 520.086ZM869.047 520.359L869.042 517.359L866.749 517.363L866.151 519.577L869.047 520.359ZM820.375 700.555L817.479 699.772L816.46 703.544L820.367 703.555L820.375 700.555ZM922.914 700.828L922.906 703.828H922.914V700.828ZM998.109 700.828V703.828H1000.41L1001.01 701.61L998.109 700.828ZM1005.49 673.484V670.484H1003.19L1002.6 672.702L1005.49 673.484ZM1114.87 673.484L1117.76 674.264L1118.78 670.484H1114.87V673.484ZM1090.8 762.898L1092.67 765.251L1093.44 764.636L1093.7 763.678L1090.8 762.898ZM1034.48 807.469V810.469H1035.52L1036.34 809.821L1034.48 807.469ZM727.406 807.469L724.997 809.257L725.897 810.469H727.406V807.469ZM694.32 762.898L691.423 762.12L691.047 763.521L691.911 764.687L694.32 762.898ZM776.078 458.562L774.21 456.215L773.437 456.831L773.181 457.784L776.078 458.562ZM832.406 413.719V410.719H831.358L830.538 411.372L832.406 413.719ZM1139.75 413.719L1142.17 411.94L1141.27 410.719H1139.75V413.719ZM1172.56 458.289L1175.46 459.069L1175.83 457.674L1174.98 456.51L1172.56 458.289ZM1148.5 544.703H1039.12V550.703H1148.5V544.703ZM1042.02 548.478L1049.41 520.861L1043.61 519.311L1036.23 546.928L1042.02 548.478ZM1046.5 517.086L869.042 517.359L869.052 523.359L1046.51 523.086L1046.5 517.086ZM866.151 519.577L817.479 699.772L823.271 701.337L871.943 521.142L866.151 519.577ZM820.367 703.555L922.906 703.828L922.922 697.828L820.383 697.555L820.367 703.555ZM922.914 703.828H998.109V697.828H922.914V703.828ZM1001.01 701.61L1008.39 674.266L1002.6 672.702L995.213 700.046L1001.01 701.61ZM1005.49 676.484H1114.87V670.484H1005.49V676.484ZM1111.97 672.705L1087.91 762.119L1093.7 763.678L1117.76 674.264L1111.97 672.705ZM1088.94 760.546L1032.62 805.116L1036.34 809.821L1092.67 765.251L1088.94 760.546ZM1034.48 804.469H727.406V810.469H1034.48V804.469ZM729.815 805.681L696.729 761.11L691.911 764.687L724.997 809.257L729.815 805.681ZM697.218 763.677L778.975 459.341L773.181 457.784L691.423 762.12L697.218 763.677ZM777.947 460.91L834.275 416.066L830.538 411.372L774.21 456.215L777.947 460.91ZM832.406 416.719H1139.75V410.719H832.406V416.719ZM1137.33 415.497L1170.15 460.068L1174.98 456.51L1142.17 411.94L1137.33 415.497ZM1169.67 457.509L1145.6 546.924L1151.4 548.483L1175.46 459.069L1169.67 457.509ZM1216.04 807.469V810.469H1218.34L1218.94 808.242L1216.04 807.469ZM1106.39 807.469L1103.49 806.689L1102.48 810.469H1106.39V807.469ZM1135.1 700.828V697.828H1132.8L1132.2 700.048L1135.1 700.828ZM1244.48 700.828L1247.38 701.601L1248.38 697.828H1244.48V700.828ZM1216.04 804.469H1106.39V810.469H1216.04V804.469ZM1109.29 808.249L1138 701.608L1132.2 700.048L1103.49 806.689L1109.29 808.249ZM1135.1 703.828H1244.48V697.828H1135.1V703.828ZM1241.58 700.055L1213.14 806.696L1218.94 808.242L1247.38 701.601L1241.58 700.055Z" fill="black"/>
</g>
<defs>
<filter id="filter0_d_1639_391" x="107.797" y="413.719" width="1142.68" height="399.75" filterUnits="userSpaceOnUse" color-interpolation-filters="sRGB">
<feFlood flood-opacity="0" result="BackgroundImageFix"/>
<feColorMatrix in="SourceAlpha" type="matrix" values="0 0 0 0 0 0 0 0 0 0 0 0 0 0 0 0 0 0 127 0" result="hardAlpha"/>
<feOffset dx="6" dy="6"/>
<feComposite in2="hardAlpha" operator="out"/>
<feColorMatrix type="matrix" values="0 0 0 0 0 0 0 0 0 0 0 0 0 0 0 0 0 0 1 0"/>
<feBlend mode="normal" in2="BackgroundImageFix" result="effect1_dropShadow_1639_391"/>
<feBlend mode="normal" in="SourceGraphic" in2="effect1_dropShadow_1639_391" result="shape"/>
</filter>
</defs>
</svg>
